# xmcd
#
# Track frame offsets:
#	150
#	19708
#	42263
#	53768
#	75240
#	94690
#	116628
#	131513
#	146513
#	169535
#
# Disc length: 2645 seconds
#
# Revision: 1
# Processed by: cddbd v1.5.1PL0 Copyright (c) Steve Scherf et al.
# Submitted via: CDex 1.50Beta5
#
DISCID=730a530a
DTITLE=松山千春 - 木枯らしに抱かれて
DYEAR=1993
DGENRE=
TTITLE0=北風の中
TTITLE1=涙の向こうに
TTITLE2=うぬぼれ
TTITLE3=木枯しに抱かれて
TTITLE4=私の明日には
TTITLE5=炎
TTITLE6=ラブ・ソング
TTITLE7=夕焼け
TTITLE8=子守唄
TTITLE9=悲しい時には
EXTD=
EXTT0=
EXTT1=
EXTT2=
EXTT3=
EXTT4=
EXTT5=
EXTT6=
EXTT7=
EXTT8=
EXTT9=
PLAYORDER=
